<svg xmlns="http://www.w3.org/2000/svg" width="80" height="40" viewBox="0 0 80 40">
  <g fill="#FAFAFA" fill-rule="evenodd">
    <path d="M59.48,0.227777778 C70.7103159,0.227777778 79.8142857,9.07885954 79.8142857,19.9972222 C79.8142857,30.9155849 70.7103159,39.7666667 59.48,39.7666667 C56.5189138,39.7818213 53.5913116,39.1575372 50.9085714,37.9388889 C44.4342857,35.1611111 36.84,25.2277778 35.3714286,23.2444444 L33,20 L35.3714286,16.7611111 C37.5085714,13.8388889 44.9714286,4.13333333 51.3714286,1.87222222 C53.9510476,0.855963933 56.6976062,0.298952991 59.48,0.227777778 L59.48,0.227777778 Z M59.48,28.6555556 C64.3984902,28.6555556 68.3857143,24.7790877 68.3857143,19.9972222 C68.3857143,15.2153568 64.3984902,11.3388889 59.48,11.3388889 C58.0292773,11.4377939 56.6058076,11.7720399 55.2685714,12.3277778 C53.8228571,12.8388889 50.4114286,16.1388889 47.2228571,19.9722222 C50.2742857,23.5944444 53.7542857,27.0388889 55.5314286,27.75 L55.8914286,27.9111111 C57.0190533,28.406032 58.2428011,28.6598968 59.48,28.6555556 L59.48,28.6555556 Z"/>
    <path d="M33.4228571,24.6277778 L31.4,21.9 C28.7371429,24.8833333 26.1771429,27.2388889 24.9714286,27.6666667 C23.6341924,28.2224045 22.2107227,28.5566506 20.76,28.6555556 C15.8415098,28.6555556 11.8542857,24.7790877 11.8542857,19.9972222 C11.8542857,15.2153568 15.8415098,11.3388889 20.76,11.3388889 C21.9959643,11.3291354 23.2196949,11.5773132 24.3485714,12.0666667 L24.7085714,12.2277778 C26.1771429,12.8277778 28.8,15.2722222 31.3828571,18.1444444 L33.3828571,15.4055556 C34.4857143,13.8944444 36.2685714,11.5722222 38.4342857,9.14444444 C35.6457143,6.24444444 32.3542857,3.35 29.2914286,2.05 C26.6086884,0.831351645 23.6810862,0.207067582 20.72,0.222222222 C9.4896841,0.222222222 0.385714286,9.07330399 0.385714286,19.9916667 C0.385714286,30.9100293 9.4896841,39.7611111 20.72,39.7611111 C23.5076575,39.6841939 26.2582579,39.1196208 28.84,38.0944444 C32.0514286,36.9833333 35.5371429,33.9333333 38.48,30.8444444 C36.1714286,28.25 34.32,25.8388889 33.4228571,24.6277778 Z"/>
  </g>
</svg>
