<svg xmlns="http://www.w3.org/2000/svg" width="80" height="40" viewBox="0 0 80 40"><g fill="none" fill-rule="evenodd"><path fill="#D64F4A" d="M59.48.228c11.23 0 20.334 8.85 20.334 19.77 0 10.918-9.104 19.769-20.334 19.769a20.481 20.481 0 0 1-8.571-1.828C44.434 35.16 36.84 25.228 35.37 23.244L33 20l2.371-3.239c2.138-2.922 9.6-12.628 16-14.889A23.79 23.79 0 0 1 59.48.228zm0 28.428c4.918 0 8.906-3.877 8.906-8.659 0-4.782-3.988-8.658-8.906-8.658-1.45.099-2.874.433-4.211.989-1.446.51-4.858 3.81-8.046 7.644 3.051 3.622 6.531 7.067 8.308 7.778l.36.161a8.856 8.856 0 0 0 3.589.745z"/><path fill="#3389CE" d="M33.423 24.628L31.4 21.9c-2.663 2.983-5.223 5.339-6.429 5.767-1.337.555-2.76.89-4.211.989-4.918 0-8.906-3.877-8.906-8.659 0-4.782 3.988-8.658 8.906-8.658a8.851 8.851 0 0 1 3.589.728l.36.16c1.468.6 4.091 3.045 6.674 5.917l2-2.738a84.365 84.365 0 0 1 5.051-6.262c-2.788-2.9-6.08-5.794-9.143-7.094A20.481 20.481 0 0 0 20.72.222C9.49.222.386 9.073.386 19.992c0 10.918 9.104 19.77 20.334 19.77a23.787 23.787 0 0 0 8.12-1.668c3.211-1.11 6.697-4.16 9.64-7.25a93.238 93.238 0 0 1-5.057-6.216z"/></g></svg>